{
  "accessors": [
    {
      "bufferView": 1,
      "componentType": 5126,
      "count": 65532,
      "max": [
        10.052260398864746,
        31.417617797851563,
        199.5673065185547
      ],
      "min": [
        -13.868023872375488,
        -15.071394920349121,
        151.1111602783203
      ],
      "type": "VEC3"
    },
    {
      "bufferView": 1,
      "byteOffset": 786384,
      "componentType": 5126,
      "count": 65532,
      "max": [
        0.9999906420707703,
        0.9999991059303284,
        0.9999663829803467
      ],
      "min": [
        -0.9999982118606567,
        -0.9999400973320007,
        -0.9999998807907104
      ],
      "type": "VEC3"
    },
    {
      "bufferView": 0,
      "componentType": 5125,
      "count": 341664,
      "type": "SCALAR"
    },
    {
      "bufferView": 1,
      "byteOffset": 1572768,
      "componentType": 5126,
      "count": 65532,
      "max": [
        14.178410530090332,
        30.384130477905273,
        199.5474395751953
      ],
      "min": [
        -11.002767562866211,
        -15.254288673400879,
        162.41885375976563
      ],
      "type": "VEC3"
    },
    {
      "bufferView": 1,
      "byteOffset": 2359152,
      "componentType": 5126,
      "count": 65532,
      "max": [
        0.9999993443489075,
        1.0,
        1.0
      ],
      "min": [
        -0.9999980926513672,
        -1.0,
        -1.0
      ],
      "type": "VEC3"
    },
    {
      "bufferView": 0,
      "byteOffset": 1366656,
      "componentType": 5125,
      "count": 341505,
      "type": "SCALAR"
    },
    {
      "bufferView": 1,
      "byteOffset": 3145536,
      "componentType": 5126,
      "count": 65532,
      "max": [
        14.163534164428711,
        24.066287994384766,
        197.0583038330078
      ],
      "min": [
        -10.393327713012695,
        -20.06090545654297,
        166.0001220703125
      ],
      "type": "VEC3"
    },
    {
      "bufferView": 1,
      "byteOffset": 3931920,
      "componentType": 5126,
      "count": 65532,
      "max": [
        0.9999998807907104,
        0.9999997615814209,
        1.0
      ],
      "min": [
        -1.0,
        -0.9999997615814209,
        -1.0
      ],
      "type": "VEC3"
    },
    {
      "bufferView": 0,
      "byteOffset": 2732676,
      "componentType": 5125,
      "count": 322512,
      "type": "SCALAR"
    },
    {
      "bufferView": 1,
      "byteOffset": 4718304,
      "componentType": 5126,
      "count": 65532,
      "max": [
        13.640981674194336,
        11.599535942077637,
        190.61795043945313
      ],
      "min": [
        -13.874162673950195,
        -19.990163803100586,
        150.96450805664063
      ],
      "type": "VEC3"
    },
    {
      "bufferView": 1,
      "byteOffset": 5504688,
      "componentType": 5126,
      "count": 65532,
      "max": [
        0.9999974966049194,
        0.9999845027923584,
        0.9998882412910461
      ],
      "min": [
        -0.9999898672103882,
        -0.9999926686286926,
        -0.9999354481697083
      ],
      "type": "VEC3"
    },
    {
      "bufferView": 0,
      "byteOffset": 4022724,
      "componentType": 5125,
      "count": 349734,
      "type": "SCALAR"
    },
    {
      "bufferView": 1,
      "byteOffset": 6291072,
      "componentType": 5126,
      "count": 65532,
      "max": [
        11.458657264709473,
        9.880088806152344,
        193.0931396484375
      ],
      "min": [
        -11.510974884033203,
        -18.30929946899414,
        155.6230926513672
      ],
      "type": "VEC3"
    },
    {
      "bufferView": 1,
      "byteOffset": 7077456,
      "componentType": 5126,
      "count": 65532,
      "max": [
        0.9999988675117493,
        0.9999972581863403,
        0.9999993443489075
      ],
      "min": [
        -1.0,
        -1.0,
        -0.9999997615814209
      ],
      "type": "VEC3"
    },
    {
      "bufferView": 0,
      "byteOffset": 5421660,
      "componentType": 5125,
      "count": 299067,
      "type": "SCALAR"
    },
    {
      "bufferView": 1,
      "byteOffset": 7863840,
      "componentType": 5126,
      "count": 65532,
      "max": [
        11.960073471069336,
        14.70195198059082,
        193.3821563720703
      ],
      "min": [
        -11.112070083618164,
        -11.2705659866333,
        176.03656005859375
      ],
      "type": "VEC3"
    },
    {
      "bufferView": 1,
      "byteOffset": 8650224,
      "componentType": 5126,
      "count": 65532,
      "max": [
        1.0,
        1.0,
        1.0
      ],
      "min": [
        -1.0,
        -1.0,
        -1.0
      ],
      "type": "VEC3"
    },
    {
      "bufferView": 0,
      "byteOffset": 6617928,
      "componentType": 5125,
      "count": 287691,
      "type": "SCALAR"
    },
    {
      "bufferView": 1,
      "byteOffset": 9436608,
      "componentType": 5126,
      "count": 5363,
      "max": [
        13.322531700134277,
        23.156879425048828,
        196.4998779296875
      ],
      "min": [
        -10.098892211914063,
        0.14541999995708466,
        180.9320068359375
      ],
      "type": "VEC3"
    },
    {
      "bufferView": 1,
      "byteOffset": 9500964,
      "componentType": 5126,
      "count": 5363,
      "max": [
        0.9995783567428589,
        0.9997270107269287,
        0.9999555349349976
      ],
      "min": [
        -0.9999966621398926,
        -0.9999611377716064,
        -0.9999964833259583
      ],
      "type": "VEC3"
    },
    {
      "bufferView": 0,
      "byteOffset": 7768692,
      "componentType": 5125,
      "count": 17229,
      "type": "SCALAR"
    }
  ],
  "asset": {
    "extras": {
      "author": "Casey DeDore (https://sketchfab.com/caseydedore)",
      "license": "CC-BY-4.0 (http://creativecommons.org/licenses/by/4.0/)",
      "source": "https://sketchfab.com/3d-models/tech-braids-e2fd4f29f14c4bb5b69f9b38603018cf",
      "title": "Tech Braids"
    },
    "generator": "Sketchfab-12.68.0",
    "version": "2.0"
  },
  "bufferViews": [
    {
      "buffer": 0,
      "byteLength": 7837608,
      "name": "floatBufferViews",
      "target": 34963
    },
    {
      "buffer": 0,
      "byteLength": 9565320,
      "byteOffset": 7837608,
      "byteStride": 12,
      "name": "floatBufferViews",
      "target": 34962
    }
  ],
  "buffers": [
    {
      "byteLength": 17402928,
      "uri": "scene.bin"
    }
  ],
  "materials": [
    {
      "doubleSided": true,
      "name": "head",
      "pbrMetallicRoughness": {
        "baseColorFactor": [
          0.5190816593712904,
          0.4453664764977752,
          0.4453664764977752,
          1.0
        ],
        "metallicFactor": 0.07488567073170732,
        "roughnessFactor": 0.6
      }
    }
  ],
  "meshes": [
    {
      "name": "Object_0",
      "primitives": [
        {
          "attributes": {
            "NORMAL": 1,
            "POSITION": 0
          },
          "indices": 2,
          "material": 0,
          "mode": 4
        }
      ]
    },
    {
      "name": "Object_1",
      "primitives": [
        {
          "attributes": {
            "NORMAL": 4,
            "POSITION": 3
          },
          "indices": 5,
          "material": 0,
          "mode": 4
        }
      ]
    },
    {
      "name": "Object_2",
      "primitives": [
        {
          "attributes": {
            "NORMAL": 7,
            "POSITION": 6
          },
          "indices": 8,
          "material": 0,
          "mode": 4
        }
      ]
    },
    {
      "name": "Object_3",
      "primitives": [
        {
          "attributes": {
            "NORMAL": 10,
            "POSITION": 9
          },
          "indices": 11,
          "material": 0,
          "mode": 4
        }
      ]
    },
    {
      "name": "Object_4",
      "primitives": [
        {
          "attributes": {
            "NORMAL": 13,
            "POSITION": 12
          },
          "indices": 14,
          "material": 0,
          "mode": 4
        }
      ]
    },
    {
      "name": "Object_5",
      "primitives": [
        {
          "attributes": {
            "NORMAL": 16,
            "POSITION": 15
          },
          "indices": 17,
          "material": 0,
          "mode": 4
        }
      ]
    },
    {
      "name": "Object_6",
      "primitives": [
        {
          "attributes": {
            "NORMAL": 19,
            "POSITION": 18
          },
          "indices": 20,
          "material": 0,
          "mode": 4
        }
      ]
    }
  ],
  "nodes": [
    {
      "children": [
        1
      ],
      "matrix": [
        1.0,
        0.0,
        0.0,
        0.0,
        0.0,
        2.220446049250313e-16,
        -1.0,
        0.0,
        0.0,
        1.0,
        2.220446049250313e-16,
        0.0,
        0.0,
        0.0,
        0.0,
        1.0
      ],
      "name": "Sketchfab_model"
    },
    {
      "children": [
        2,
        3,
        4,
        5,
        6,
        7,
        8
      ],
      "name": "head-compressed_head.obj.cleaner.materialmerger.gles"
    },
    {
      "mesh": 0,
      "name": "Object_2"
    },
    {
      "mesh": 1,
      "name": "Object_3"
    },
    {
      "mesh": 2,
      "name": "Object_4"
    },
    {
      "mesh": 3,
      "name": "Object_5"
    },
    {
      "mesh": 4,
      "name": "Object_6"
    },
    {
      "mesh": 5,
      "name": "Object_7"
    },
    {
      "mesh": 6,
      "name": "Object_8"
    }
  ],
  "scene": 0,
  "scenes": [
    {
      "name": "Sketchfab_Scene",
      "nodes": [
        0
      ]
    }
  ]
}
