<svg xmlns="http://www.w3.org/2000/svg" version="1.1" xmlns:xlink="http://www.w3.org/1999/xlink" xmlns:svgjs="http://svgjs.dev/svgjs" width="2000" height="1247" viewBox="0 0 2000 1247"><g transform="matrix(1,0,0,1,-1.2121212121212466,0.504858299595071)"><svg viewBox="0 0 396 247" data-background-color="#ffffff" preserveAspectRatio="xMidYMid meet" height="1247" width="2000" xmlns="http://www.w3.org/2000/svg" xmlns:xlink="http://www.w3.org/1999/xlink"><g id="tight-bounds" transform="matrix(1,0,0,1,0.2400000000000091,-0.09999999999999432)"><svg viewBox="0 0 395.52 247.2" height="247.2" width="395.52"><g><svg></svg></g><g><svg viewBox="0 0 395.52 247.2" height="247.2" width="395.52"><g transform="matrix(1,0,0,1,120.58955284552846,80.34)"><svg viewBox="0 0 154.34089430894306 86.52" height="86.52" width="154.34089430894306"><g><svg viewBox="0 0 154.34089430894306 86.52" height="86.52" width="154.34089430894306"><g><svg viewBox="0 0 154.34089430894306 86.52" height="86.52" width="154.34089430894306"><g><svg viewBox="0 0 154.34089430894306 86.52" height="86.52" width="154.34089430894306"><g id="textblocktransform"><svg viewBox="0 0 154.34089430894306 86.52" height="86.52" width="154.34089430894306" id="textblock"><g><svg viewBox="0 0 154.34089430894306 86.52" height="86.52" width="154.34089430894306"><g transform="matrix(1,0,0,1,0,0)"><svg width="154.34089430894306" viewBox="-0.07 -35.55 64.27999999999999 36.04" height="86.52" data-palette-color="#0074d9"><path d="M24.95 0L22.88-6.64 11.13-6.64 9.08 0-0.07 0 12.96-35.55 21.02-35.55 34.16 0 24.95 0ZM16.99-25.59L13.18-13.26 20.83-13.26 16.99-25.59ZM55.64-35.55L64.21-35.55 64.21-12.28Q64.21-8.33 62.52-5.43 60.84-2.54 57.69-1.03 54.54 0.49 50.24 0.49L50.24 0.49Q43.75 0.49 40.01-2.88 36.28-6.25 36.2-12.11L36.2-12.11 36.2-35.55 44.82-35.55 44.82-11.94Q44.97-6.1 50.24-6.1L50.24-6.1Q52.9-6.1 54.27-7.57 55.64-9.03 55.64-12.33L55.64-12.33 55.64-35.55Z" opacity="1" transform="matrix(1,0,0,1,0,0)" fill="#0074d9" class="undefined-text-0" data-fill-palette-color="primary" id="text-0"></path></svg></g></svg></g></svg></g></svg></g><g></g></svg></g></svg></g></svg></g><g mask="url(#c308c3cc-7deb-4269-80b8-db8dea2d2419)"><g transform="matrix(2.786363636363636, 0, 0, 2.786363636363636, 58.44181818181818, 1)"><svg xmlns="http://www.w3.org/2000/svg" xmlns:xlink="http://www.w3.org/1999/xlink" version="1.1" x="0" y="0" viewBox="0 6 100 88" enable-background="new 0 0 100 100" xml:space="preserve" height="88" width="100" class="icon-none" data-fill-palette-color="accent" id="none"><g fill="#0074d9" data-fill-palette-color="accent"><path d="M41.751 59.098v6.119L20 55.789v-5.232l21.751-9.427v6.162l-15.156 5.839L41.751 59.098z" fill="#0074d9" data-fill-palette-color="accent"></path><path d="M55.2 41l-6.055 24.93c-0.201 0.821-0.377 1.471-0.529 1.946-0.151 0.476-0.382 0.849-0.691 1.112-0.31 0.268-0.761 0.4-1.352 0.4-1.47 0-2.206-0.636-2.206-1.902 0-0.332 0.145-1.16 0.433-2.486l6.033-24.93c0.317-1.326 0.619-2.234 0.907-2.724 0.289-0.49 0.851-0.735 1.688-0.735 0.721 0 1.271 0.173 1.653 0.519 0.382 0.346 0.573 0.822 0.573 1.427C55.654 39.004 55.502 39.818 55.2 41z" fill="#0074d9" data-fill-palette-color="accent"></path><path d="M80 55.789L58.249 65.26v-6.119l15.2-5.967-15.2-5.882v-6.076L80 50.6V55.789z" fill="#0074d9" data-fill-palette-color="accent"></path></g><path d="M94 6H6c-3.313 0-6 2.687-6 6v76c0 3.313 2.687 6 6 6h88c3.314 0 6-2.688 6-6V12C100 8.686 97.314 6 94 6zM79 10c2.205 0 4 1.794 4 4s-1.795 4-4 4-4-1.794-4-4S76.795 10 79 10zM68 10c2.205 0 4 1.794 4 4s-1.795 4-4 4-4-1.794-4-4S65.795 10 68 10zM94 88H6V22h88V88zM90 18c-2.205 0-4-1.794-4-4s1.795-4 4-4 4 1.794 4 4S92.205 18 90 18z" fill="#0074d9" data-fill-palette-color="accent"></path></svg></g></g></svg></g><defs><mask id="c308c3cc-7deb-4269-80b8-db8dea2d2419"><rect width="640" height="400" fill="white"></rect><rect width="169.77498373983738" height="127.37059104" fill="black" x="235.11250813008132" y="136.31470448" id="transform-me" transform="matrix(1,0,0,1,-122.24000000000001,-76.4)"></rect></mask></defs></svg><rect width="395.52" height="247.2" fill="none" stroke="none" visibility="hidden"></rect></g></svg></g></svg>