<svg xmlns="http://www.w3.org/2000/svg" version="1.1" xmlns:xlink="http://www.w3.org/1999/xlink" xmlns:svgjs="http://svgjs.dev/svgjs" width="2000" height="1247" viewBox="0 0 2000 1247"><g transform="matrix(1,0,0,1,-1.2121212121212466,0.504858299595071)"><svg viewBox="0 0 396 247" data-background-color="#ffffff" preserveAspectRatio="xMidYMid meet" height="1247" width="2000" xmlns="http://www.w3.org/2000/svg" xmlns:xlink="http://www.w3.org/1999/xlink"><g id="tight-bounds" transform="matrix(1,0,0,1,0.2400000000000091,-0.09999999999999432)"><svg viewBox="0 0 395.52 247.2" height="247.2" width="395.52"><g><svg></svg></g><g><svg viewBox="0 0 395.52 247.2" height="247.2" width="395.52"><g transform="matrix(1,0,0,1,121.96707317073171,80.34)"><svg viewBox="0 0 151.58585365853656 86.52" height="86.52" width="151.58585365853656"><g><svg viewBox="0 0 151.58585365853656 86.52" height="86.52" width="151.58585365853656"><g><svg viewBox="0 0 151.58585365853656 86.52" height="86.52" width="151.58585365853656"><g><svg viewBox="0 0 151.58585365853656 86.52" height="86.52" width="151.58585365853656"><g id="textblocktransform"><svg viewBox="0 0 151.58585365853656 86.52" height="86.52" width="151.58585365853656" id="textblock"><g><svg viewBox="0 0 151.58585365853656 86.52" height="86.52" width="151.58585365853656"><g transform="matrix(1,0,0,1,0,0)"><svg width="151.58585365853656" viewBox="0.17 -35.55 63.129999999999995 36.04" height="86.52" data-palette-color="#bf61ff"><path d="M25.71 0L23.24-7.32 10.4-7.32 7.96 0 0.17 0 13.4-35.55 20.19-35.55 33.5 0 25.71 0ZM16.8-26.56L12.38-13.26 21.26-13.26 16.8-26.56ZM55.95-35.55L63.3-35.55 63.3-12.13Q63.3-6.3 59.65-2.91 56 0.49 49.68 0.49L49.68 0.49Q43.45 0.49 39.79-2.81 36.13-6.1 36.06-11.87L36.06-11.87 36.06-35.55 43.38-35.55 43.38-12.08Q43.38-8.59 45.05-6.99 46.73-5.4 49.68-5.4L49.68-5.4Q55.86-5.4 55.95-11.89L55.95-11.89 55.95-35.55Z" opacity="1" transform="matrix(1,0,0,1,0,0)" fill="#bf61ff" class="undefined-text-0" data-fill-palette-color="primary" id="text-0"></path></svg></g></svg></g></svg></g></svg></g><g></g></svg></g></svg></g></svg></g><g mask="url(#87cdf99e-a4d5-4444-a5db-0024e417f706)"><g transform="matrix(2.786363636363636, 0, 0, 2.786363636363636, 58.44181818181818, 1)"><svg xmlns="http://www.w3.org/2000/svg" xmlns:xlink="http://www.w3.org/1999/xlink" version="1.1" x="0" y="0" viewBox="0 6 100 88" enable-background="new 0 0 100 100" xml:space="preserve" height="88" width="100" class="icon-none" data-fill-palette-color="accent" id="none"><g fill="#bf61ff" data-fill-palette-color="accent"><path d="M41.751 59.098v6.119L20 55.789v-5.232l21.751-9.427v6.162l-15.156 5.839L41.751 59.098z" fill="#bf61ff" data-fill-palette-color="accent"></path><path d="M55.2 41l-6.055 24.93c-0.201 0.821-0.377 1.471-0.529 1.946-0.151 0.476-0.382 0.849-0.691 1.112-0.31 0.268-0.761 0.4-1.352 0.4-1.47 0-2.206-0.636-2.206-1.902 0-0.332 0.145-1.16 0.433-2.486l6.033-24.93c0.317-1.326 0.619-2.234 0.907-2.724 0.289-0.49 0.851-0.735 1.688-0.735 0.721 0 1.271 0.173 1.653 0.519 0.382 0.346 0.573 0.822 0.573 1.427C55.654 39.004 55.502 39.818 55.2 41z" fill="#bf61ff" data-fill-palette-color="accent"></path><path d="M80 55.789L58.249 65.26v-6.119l15.2-5.967-15.2-5.882v-6.076L80 50.6V55.789z" fill="#bf61ff" data-fill-palette-color="accent"></path></g><path d="M94 6H6c-3.313 0-6 2.687-6 6v76c0 3.313 2.687 6 6 6h88c3.314 0 6-2.688 6-6V12C100 8.686 97.314 6 94 6zM79 10c2.205 0 4 1.794 4 4s-1.795 4-4 4-4-1.794-4-4S76.795 10 79 10zM68 10c2.205 0 4 1.794 4 4s-1.795 4-4 4-4-1.794-4-4S65.795 10 68 10zM94 88H6V22h88V88zM90 18c-2.205 0-4-1.794-4-4s1.795-4 4-4 4 1.794 4 4S92.205 18 90 18z" fill="#bf61ff" data-fill-palette-color="accent"></path></svg></g></g></svg></g><defs><mask id="87cdf99e-a4d5-4444-a5db-0024e417f706"><rect width="640" height="400" fill="white"></rect><rect width="166.74443902439023" height="127.37059104" fill="black" x="236.6277804878049" y="136.31470448" id="transform-me" transform="matrix(1,0,0,1,-122.24000000000001,-76.4)"></rect></mask></defs></svg><rect width="395.52" height="247.2" fill="none" stroke="none" visibility="hidden"></rect></g></svg></g></svg>