<svg xmlns="http://www.w3.org/2000/svg" version="1.1" xmlns:xlink="http://www.w3.org/1999/xlink" xmlns:svgjs="http://svgjs.dev/svgjs" width="2000" height="1247" viewBox="0 0 2000 1247"><g transform="matrix(1,0,0,1,-1.2121212121212466,0.504858299595071)"><svg viewBox="0 0 396 247" data-background-color="#7a26c1" preserveAspectRatio="xMidYMid meet" height="1247" width="2000" xmlns="http://www.w3.org/2000/svg" xmlns:xlink="http://www.w3.org/1999/xlink"><g id="tight-bounds" transform="matrix(1,0,0,1,0.2400000000000091,-0.09999999999999432)"><svg viewBox="0 0 395.52 247.2" height="247.2" width="395.52"><g><svg></svg></g><g><svg viewBox="0 0 395.52 247.2" height="247.2" width="395.52"><g transform="matrix(1,0,0,1,118.65599999999999,81.1630305882353)"><svg viewBox="0 0 158.208 84.8739388235294" height="84.8739388235294" width="158.208"><g><svg viewBox="0 0 158.208 84.8739388235294" height="84.8739388235294" width="158.208"><g><svg viewBox="0 0 158.208 84.8739388235294" height="84.8739388235294" width="158.208"><g><svg viewBox="0 0 158.208 84.8739388235294" height="84.8739388235294" width="158.208"><g id="textblocktransform"><svg viewBox="0 0 158.208 84.8739388235294" height="84.8739388235294" width="158.208" id="textblock"><g><svg viewBox="0 0 158.208 84.8739388235294" height="84.8739388235294" width="158.208"><g transform="matrix(1,0,0,1,0,0)"><svg width="158.208" viewBox="1.149999976158142 -33.70000076293945 63.75 34.20000076293945" height="84.8739388235294" data-palette-color="#ffffff"><path d="M13.45-14.3L13.45-14.3 13.1-13.1 21.2-13.1 20.85-14.3Q19.4-19.2 18.48-22.65 17.55-26.1 17.35-27.1L17.35-27.1 17.15-28.1Q16.75-25.35 13.45-14.3ZM11.25-6.9L9.2 0 1.15 0 12.4-33.7 22.1-33.7 33.35 0 25.1 0 23.05-6.9 11.25-6.9ZM64.9-33.7L64.9-13.05Q64.9-6.45 61.2-2.98 57.5 0.5 51.2 0.5L51.2 0.5Q45 0.5 41.25-2.95 37.5-6.4 37.5-12.7L37.5-12.7 37.5-33.7 45.2-33.7 45.2-12.75Q45.2-6.5 51.2-6.5 57.2-6.5 57.2-13L57.2-13 57.2-33.7 64.9-33.7Z" opacity="1" transform="matrix(1,0,0,1,0,0)" fill="#ffffff" class="undefined-text-0" data-fill-palette-color="primary" id="text-0"></path></svg></g></svg></g></svg></g></svg></g><g></g></svg></g></svg></g></svg></g><g mask="url(#cf1c1916-7f90-4b92-86c5-ecbb27933599)"><g transform="matrix(2.786363636363636, 0, 0, 2.786363636363636, 58.44181818181818, 1)"><svg xmlns="http://www.w3.org/2000/svg" xmlns:xlink="http://www.w3.org/1999/xlink" version="1.1" x="0" y="0" viewBox="0 6 100 88" enable-background="new 0 0 100 100" xml:space="preserve" height="88" width="100" class="icon-none" data-fill-palette-color="accent" id="none"><g fill="#ffffff" data-fill-palette-color="accent"><path d="M41.751 59.098v6.119L20 55.789v-5.232l21.751-9.427v6.162l-15.156 5.839L41.751 59.098z" fill="#ffffff" data-fill-palette-color="accent"></path><path d="M55.2 41l-6.055 24.93c-0.201 0.821-0.377 1.471-0.529 1.946-0.151 0.476-0.382 0.849-0.691 1.112-0.31 0.268-0.761 0.4-1.352 0.4-1.47 0-2.206-0.636-2.206-1.902 0-0.332 0.145-1.16 0.433-2.486l6.033-24.93c0.317-1.326 0.619-2.234 0.907-2.724 0.289-0.49 0.851-0.735 1.688-0.735 0.721 0 1.271 0.173 1.653 0.519 0.382 0.346 0.573 0.822 0.573 1.427C55.654 39.004 55.502 39.818 55.2 41z" fill="#ffffff" data-fill-palette-color="accent"></path><path d="M80 55.789L58.249 65.26v-6.119l15.2-5.967-15.2-5.882v-6.076L80 50.6V55.789z" fill="#ffffff" data-fill-palette-color="accent"></path></g><path d="M94 6H6c-3.313 0-6 2.687-6 6v76c0 3.313 2.687 6 6 6h88c3.314 0 6-2.688 6-6V12C100 8.686 97.314 6 94 6zM79 10c2.205 0 4 1.794 4 4s-1.795 4-4 4-4-1.794-4-4S76.795 10 79 10zM68 10c2.205 0 4 1.794 4 4s-1.795 4-4 4-4-1.794-4-4S65.795 10 68 10zM94 88H6V22h88V88zM90 18c-2.205 0-4-1.794-4-4s1.795-4 4-4 4 1.794 4 4S92.205 18 90 18z" fill="#ffffff" data-fill-palette-color="accent"></path></svg></g></g></svg></g><defs><mask id="cf1c1916-7f90-4b92-86c5-ecbb27933599"><rect width="640" height="400" fill="white"></rect><rect width="174.02880000000002" height="124.94733878693646" fill="black" y="61.126330606531766" x="110.74559999999998" id="transform-me"></rect></mask></defs></svg><rect width="395.52" height="247.2" fill="none" stroke="none" visibility="hidden"></rect></g></svg></g></svg>